<svg width="16" height="16" viewBox="0 0 16 16" fill="none" xmlns="http://www.w3.org/2000/svg">
<path d="M8 2C4.69 1.99 2 4.69 2 8S4.69 14 8 14S14 11.31 14 8S11.31 2 8 2Z" fill="#FFD700"/>
<path d="M8 6C7.45 6 7 6.45 7 7S7.45 8 8 8S9 7.55 9 7S8.55 6 8 6Z" fill="white"/>
<path d="M8 10C7.45 10 7 10.45 7 11S7.45 12 8 12S9 11.55 9 11S8.55 10 8 10Z" fill="white"/>
<path d="M6 6C5.45 6 5 6.45 5 7S5.45 8 6 8S7 7.55 7 7S6.55 6 6 6Z" fill="white"/>
<path d="M10 6C9.45 6 9 6.45 9 7S9.45 8 10 8S11 7.55 11 7S10.55 6 10 6Z" fill="white"/>
</svg>

